# xmcd
#
# Track frame offsets:
#	150
#	12570
#	27415
#	42930
#	58980
#	71750
#	85540
#	101032
#	112625
#	131802
#	147452
#	159150
#	173730
#	188645
#	204000
#	221530
#	238442
#	249640
#	293255
#	308722
#
# Disc length: 4522 seconds
#
# Revision: 12
# Processed by: cddbd v1.5.2PL0 Copyright (c) Steve Scherf et al.
# Submitted via: EasyCDDAExtractor 15.3.0.1
#
DISCID=1711a814
DTITLE=Cher - The Cher Collection - The Way Of Love - CD 2
DYEAR=2000
DGENRE=Pop
TTITLE0=Half Breed
TTITLE1=A Cowboy's Work Is Never Done (Sonny and Cher)
TTITLE2=Never Been To Spain
TTITLE3=My Love
TTITLE4=The Greatest Song I Ever Heard
TTITLE5=Carousel Man
TTITLE6=David's Song
TTITLE7=Melody
TTITLE8=Chastity Sun (Aka Ruby Jean and Billie Lee)
TTITLE9=Dark Lady
TTITLE10=Train Of Thought
TTITLE11=I Saw A Man And He Danced With His Wife
TTITLE12=Make The Man Love Me
TTITLE13=Dixie Girl
TTITLE14=I Got It Bad And That Ain't Good
TTITLE15=Am I Blue
TTITLE16=What'll I Do
TTITLE17=The Beat Goes On (Live) (Sonny and Cher)
TTITLE18=I Got You Babe (Live) (Sonny and Cher)
TTITLE19=Take Me Home
EXTD=YEAR: 2000 ID3G: 13
EXTT0=
EXTT1=
EXTT2=
EXTT3=
EXTT4=
EXTT5=
EXTT6=
EXTT7=
EXTT8=
EXTT9=
EXTT10=
EXTT11=
EXTT12=
EXTT13=
EXTT14=
EXTT15=
EXTT16=
EXTT17=
EXTT18=
EXTT19=
PLAYORDER=
